<?xml version="1.0" standalone="no"?>
<!DOCTYPE svg PUBLIC "-//W3C//DTD SVG 20010904//EN"
 "http://www.w3.org/TR/2001/REC-SVG-20010904/DTD/svg10.dtd">
<svg version="1.0" xmlns="http://www.w3.org/2000/svg"
 width="79.000000pt" height="94.000000pt" viewBox="0 0 79.000000 94.000000"
 preserveAspectRatio="xMidYMid meet">
<metadata>
Created by potrace 1.10, written by Peter Selinger 2001-2011
</metadata>
<g transform="translate(0.000000,94.000000) scale(0.100000,-0.100000)"
fill="#000000" stroke="none">
<path d="M40 909 c-6 -11 -11 -50 -10 -87 1 -37 -5 -92 -14 -122 -18 -61 -13
-109 15 -156 21 -35 74 -79 113 -94 l26 -9 -49 -65 c-76 -100 -104 -168 -109
-257 -6 -122 -21 -117 309 -117 151 0 282 2 292 4 30 9 42 46 42 134 0 91 2
96 85 228 28 44 35 67 38 119 4 53 2 65 -9 60 -8 -2 -13 -10 -11 -17 8 -34
-14 -96 -59 -170 -27 -45 -52 -92 -55 -106 -9 -34 -18 -30 -40 19 -10 23 -40
70 -67 104 l-47 63 38 19 c53 27 109 92 122 142 10 36 9 52 -9 106 -16 48 -20
77 -15 118 14 116 -22 137 -104 61 -46 -42 -48 -43 -82 -30 -46 16 -185 17
-232 0 -36 -13 -37 -13 -79 30 -47 48 -73 55 -89 23z m79 -54 l42 -45 45 15
c59 20 182 20 234 -1 l40 -16 50 46 c67 63 74 61 67 -21 -5 -54 -2 -80 15
-130 20 -61 20 -65 4 -108 -22 -57 -82 -109 -154 -133 -62 -20 -87 -49 -34
-39 27 5 34 1 65 -36 116 -142 172 -324 109 -355 -9 -5 -136 -8 -281 -7 -248
1 -264 3 -278 21 -37 48 18 209 111 325 38 48 48 56 70 52 45 -9 30 22 -16 34
-94 25 -178 110 -178 180 0 18 8 54 18 80 13 35 17 66 14 116 -3 40 0 67 6 67
5 0 28 -20 51 -45z"/>
</g>
</svg>
